<mxfile host="app.diagrams.net" modified="2021-06-12T18:49:12.356Z" agent="5.0 (Windows NT 10.0; WOW64) AppleWebKit/537.36 (KHTML, like Gecko) Chrome/90.0.4430.212 Safari/537.36 OPR/76.0.4017.177" etag="EcnhKARyVIv0dHQsmVtR" version="14.7.7" type="github">
  <diagram id="C5RBs43oDa-KdzZeNtuy" name="Page-1">
    <mxGraphModel dx="2022" dy="1124" grid="1" gridSize="10" guides="1" tooltips="1" connect="1" arrows="1" fold="1" page="1" pageScale="1" pageWidth="827" pageHeight="1169" math="0" shadow="0">
      <root>
        <mxCell id="WIyWlLk6GJQsqaUBKTNV-0" />
        <mxCell id="WIyWlLk6GJQsqaUBKTNV-1" parent="WIyWlLk6GJQsqaUBKTNV-0" />
        <mxCell id="LMy81X9K7p4voYokB2ZT-8" value="" style="edgeStyle=orthogonalEdgeStyle;rounded=0;orthogonalLoop=1;jettySize=auto;html=1;" edge="1" parent="WIyWlLk6GJQsqaUBKTNV-1" source="WIyWlLk6GJQsqaUBKTNV-3" target="LMy81X9K7p4voYokB2ZT-5">
          <mxGeometry relative="1" as="geometry" />
        </mxCell>
        <mxCell id="WIyWlLk6GJQsqaUBKTNV-3" value="Начало" style="rounded=1;whiteSpace=wrap;html=1;fontSize=12;glass=0;strokeWidth=1;shadow=0;" parent="WIyWlLk6GJQsqaUBKTNV-1" vertex="1">
          <mxGeometry x="376" y="40" width="76" height="30" as="geometry" />
        </mxCell>
        <mxCell id="LMy81X9K7p4voYokB2ZT-7" value="" style="edgeStyle=orthogonalEdgeStyle;rounded=0;orthogonalLoop=1;jettySize=auto;html=1;" edge="1" parent="WIyWlLk6GJQsqaUBKTNV-1" source="LMy81X9K7p4voYokB2ZT-5" target="LMy81X9K7p4voYokB2ZT-6">
          <mxGeometry relative="1" as="geometry" />
        </mxCell>
        <mxCell id="LMy81X9K7p4voYokB2ZT-5" value="&lt;span&gt;Открыть сайт www.booking.com&lt;br&gt;&lt;/span&gt;" style="rounded=0;whiteSpace=wrap;html=1;" vertex="1" parent="WIyWlLk6GJQsqaUBKTNV-1">
          <mxGeometry x="351" y="100" width="126" height="60" as="geometry" />
        </mxCell>
        <mxCell id="LMy81X9K7p4voYokB2ZT-10" value="" style="edgeStyle=orthogonalEdgeStyle;rounded=0;orthogonalLoop=1;jettySize=auto;html=1;" edge="1" parent="WIyWlLk6GJQsqaUBKTNV-1" source="LMy81X9K7p4voYokB2ZT-6" target="LMy81X9K7p4voYokB2ZT-9">
          <mxGeometry relative="1" as="geometry" />
        </mxCell>
        <mxCell id="LMy81X9K7p4voYokB2ZT-6" value="&lt;span&gt;Выбрать раздел &quot;Жильё&quot;&lt;/span&gt;" style="whiteSpace=wrap;html=1;rounded=0;" vertex="1" parent="WIyWlLk6GJQsqaUBKTNV-1">
          <mxGeometry x="351" y="190" width="126" height="50" as="geometry" />
        </mxCell>
        <mxCell id="LMy81X9K7p4voYokB2ZT-12" value="" style="edgeStyle=orthogonalEdgeStyle;rounded=0;orthogonalLoop=1;jettySize=auto;html=1;exitX=0;exitY=0.5;exitDx=0;exitDy=0;" edge="1" parent="WIyWlLk6GJQsqaUBKTNV-1" source="LMy81X9K7p4voYokB2ZT-9" target="LMy81X9K7p4voYokB2ZT-11">
          <mxGeometry relative="1" as="geometry" />
        </mxCell>
        <mxCell id="LMy81X9K7p4voYokB2ZT-14" value="" style="edgeStyle=orthogonalEdgeStyle;rounded=0;orthogonalLoop=1;jettySize=auto;html=1;exitX=1;exitY=0.5;exitDx=0;exitDy=0;" edge="1" parent="WIyWlLk6GJQsqaUBKTNV-1" source="LMy81X9K7p4voYokB2ZT-9" target="LMy81X9K7p4voYokB2ZT-13">
          <mxGeometry relative="1" as="geometry" />
        </mxCell>
        <mxCell id="LMy81X9K7p4voYokB2ZT-9" value="Быстрого фильтра &quot;города&quot; достаточно?" style="rhombus;whiteSpace=wrap;html=1;rounded=0;" vertex="1" parent="WIyWlLk6GJQsqaUBKTNV-1">
          <mxGeometry x="326" y="290" width="176" height="70" as="geometry" />
        </mxCell>
        <mxCell id="LMy81X9K7p4voYokB2ZT-18" value="" style="edgeStyle=orthogonalEdgeStyle;rounded=0;orthogonalLoop=1;jettySize=auto;html=1;exitX=0.5;exitY=1;exitDx=0;exitDy=0;" edge="1" parent="WIyWlLk6GJQsqaUBKTNV-1" source="LMy81X9K7p4voYokB2ZT-11">
          <mxGeometry relative="1" as="geometry">
            <mxPoint x="414" y="470" as="targetPoint" />
            <Array as="points">
              <mxPoint x="266" y="470" />
              <mxPoint x="414" y="470" />
            </Array>
          </mxGeometry>
        </mxCell>
        <mxCell id="LMy81X9K7p4voYokB2ZT-11" value="Нажать на подходящий фильтр" style="whiteSpace=wrap;html=1;rounded=0;" vertex="1" parent="WIyWlLk6GJQsqaUBKTNV-1">
          <mxGeometry x="206" y="370" width="120" height="60" as="geometry" />
        </mxCell>
        <mxCell id="LMy81X9K7p4voYokB2ZT-23" style="edgeStyle=orthogonalEdgeStyle;rounded=0;orthogonalLoop=1;jettySize=auto;html=1;entryX=0.5;entryY=0;entryDx=0;entryDy=0;exitX=0.5;exitY=1;exitDx=0;exitDy=0;" edge="1" parent="WIyWlLk6GJQsqaUBKTNV-1" source="LMy81X9K7p4voYokB2ZT-13" target="LMy81X9K7p4voYokB2ZT-17">
          <mxGeometry relative="1" as="geometry">
            <Array as="points">
              <mxPoint x="578" y="450" />
              <mxPoint x="414" y="450" />
            </Array>
          </mxGeometry>
        </mxCell>
        <mxCell id="LMy81X9K7p4voYokB2ZT-13" value="Ввести&amp;nbsp;&quot;Город, Даты, Количество взрослых, детей, номеров&quot;" style="shape=parallelogram;perimeter=parallelogramPerimeter;whiteSpace=wrap;html=1;fixedSize=1;rounded=0;" vertex="1" parent="WIyWlLk6GJQsqaUBKTNV-1">
          <mxGeometry x="502" y="365" width="152" height="65" as="geometry" />
        </mxCell>
        <mxCell id="LMy81X9K7p4voYokB2ZT-22" value="" style="edgeStyle=orthogonalEdgeStyle;rounded=0;orthogonalLoop=1;jettySize=auto;html=1;entryX=0.5;entryY=0;entryDx=0;entryDy=0;" edge="1" parent="WIyWlLk6GJQsqaUBKTNV-1" source="LMy81X9K7p4voYokB2ZT-17" target="LMy81X9K7p4voYokB2ZT-25">
          <mxGeometry relative="1" as="geometry" />
        </mxCell>
        <mxCell id="LMy81X9K7p4voYokB2ZT-46" value="" style="edgeStyle=orthogonalEdgeStyle;rounded=0;orthogonalLoop=1;jettySize=auto;html=1;entryX=0.5;entryY=0;entryDx=0;entryDy=0;" edge="1" parent="WIyWlLk6GJQsqaUBKTNV-1" source="LMy81X9K7p4voYokB2ZT-17" target="LMy81X9K7p4voYokB2ZT-21">
          <mxGeometry relative="1" as="geometry">
            <mxPoint x="414" y="700" as="targetPoint" />
            <Array as="points">
              <mxPoint x="266" y="545" />
            </Array>
          </mxGeometry>
        </mxCell>
        <mxCell id="LMy81X9K7p4voYokB2ZT-17" value="Нужны дополнительные фильтры/изменить фильтры?" style="rhombus;whiteSpace=wrap;html=1;rounded=0;" vertex="1" parent="WIyWlLk6GJQsqaUBKTNV-1">
          <mxGeometry x="346" y="505" width="136" height="80" as="geometry" />
        </mxCell>
        <mxCell id="LMy81X9K7p4voYokB2ZT-26" value="" style="edgeStyle=orthogonalEdgeStyle;rounded=0;orthogonalLoop=1;jettySize=auto;html=1;exitX=0.5;exitY=1;exitDx=0;exitDy=0;" edge="1" parent="WIyWlLk6GJQsqaUBKTNV-1" source="LMy81X9K7p4voYokB2ZT-21" target="LMy81X9K7p4voYokB2ZT-25">
          <mxGeometry relative="1" as="geometry" />
        </mxCell>
        <mxCell id="LMy81X9K7p4voYokB2ZT-21" value="Ввести интересующие данные" style="shape=parallelogram;perimeter=parallelogramPerimeter;whiteSpace=wrap;html=1;fixedSize=1;rounded=0;" vertex="1" parent="WIyWlLk6GJQsqaUBKTNV-1">
          <mxGeometry x="206" y="590" width="120" height="60" as="geometry" />
        </mxCell>
        <mxCell id="LMy81X9K7p4voYokB2ZT-28" value="" style="edgeStyle=orthogonalEdgeStyle;rounded=0;orthogonalLoop=1;jettySize=auto;html=1;" edge="1" parent="WIyWlLk6GJQsqaUBKTNV-1" source="LMy81X9K7p4voYokB2ZT-25" target="LMy81X9K7p4voYokB2ZT-27">
          <mxGeometry relative="1" as="geometry" />
        </mxCell>
        <mxCell id="LMy81X9K7p4voYokB2ZT-25" value="Поиск подходящего места в списке" style="whiteSpace=wrap;html=1;rounded=0;" vertex="1" parent="WIyWlLk6GJQsqaUBKTNV-1">
          <mxGeometry x="354" y="690" width="120" height="60" as="geometry" />
        </mxCell>
        <mxCell id="LMy81X9K7p4voYokB2ZT-30" value="" style="edgeStyle=orthogonalEdgeStyle;rounded=0;orthogonalLoop=1;jettySize=auto;html=1;" edge="1" parent="WIyWlLk6GJQsqaUBKTNV-1" source="LMy81X9K7p4voYokB2ZT-27" target="LMy81X9K7p4voYokB2ZT-29">
          <mxGeometry relative="1" as="geometry" />
        </mxCell>
        <mxCell id="LMy81X9K7p4voYokB2ZT-52" value="" style="edgeStyle=orthogonalEdgeStyle;rounded=0;orthogonalLoop=1;jettySize=auto;html=1;" edge="1" parent="WIyWlLk6GJQsqaUBKTNV-1" source="LMy81X9K7p4voYokB2ZT-27" target="LMy81X9K7p4voYokB2ZT-51">
          <mxGeometry relative="1" as="geometry" />
        </mxCell>
        <mxCell id="LMy81X9K7p4voYokB2ZT-27" value="Место найдено?" style="rhombus;whiteSpace=wrap;html=1;rounded=0;" vertex="1" parent="WIyWlLk6GJQsqaUBKTNV-1">
          <mxGeometry x="356" y="790" width="116" height="80" as="geometry" />
        </mxCell>
        <mxCell id="LMy81X9K7p4voYokB2ZT-32" value="" style="edgeStyle=orthogonalEdgeStyle;rounded=0;orthogonalLoop=1;jettySize=auto;html=1;" edge="1" parent="WIyWlLk6GJQsqaUBKTNV-1" source="LMy81X9K7p4voYokB2ZT-29" target="LMy81X9K7p4voYokB2ZT-31">
          <mxGeometry relative="1" as="geometry" />
        </mxCell>
        <mxCell id="LMy81X9K7p4voYokB2ZT-29" value="Открыть &quot;Посмотреть наличие мест&quot;" style="whiteSpace=wrap;html=1;rounded=0;" vertex="1" parent="WIyWlLk6GJQsqaUBKTNV-1">
          <mxGeometry x="518" y="900" width="120" height="60" as="geometry" />
        </mxCell>
        <mxCell id="LMy81X9K7p4voYokB2ZT-34" value="" style="edgeStyle=orthogonalEdgeStyle;rounded=0;orthogonalLoop=1;jettySize=auto;html=1;" edge="1" parent="WIyWlLk6GJQsqaUBKTNV-1" source="LMy81X9K7p4voYokB2ZT-31" target="LMy81X9K7p4voYokB2ZT-33">
          <mxGeometry relative="1" as="geometry" />
        </mxCell>
        <mxCell id="LMy81X9K7p4voYokB2ZT-50" value="" style="edgeStyle=orthogonalEdgeStyle;rounded=0;orthogonalLoop=1;jettySize=auto;html=1;" edge="1" parent="WIyWlLk6GJQsqaUBKTNV-1" source="LMy81X9K7p4voYokB2ZT-31">
          <mxGeometry relative="1" as="geometry">
            <mxPoint x="414" y="480" as="targetPoint" />
            <Array as="points">
              <mxPoint x="750" y="1040" />
              <mxPoint x="750" y="480" />
            </Array>
          </mxGeometry>
        </mxCell>
        <mxCell id="LMy81X9K7p4voYokB2ZT-31" value="Место соответствует ожиданиям?" style="rhombus;whiteSpace=wrap;html=1;rounded=0;" vertex="1" parent="WIyWlLk6GJQsqaUBKTNV-1">
          <mxGeometry x="520" y="1000" width="116" height="80" as="geometry" />
        </mxCell>
        <mxCell id="LMy81X9K7p4voYokB2ZT-36" value="" style="edgeStyle=orthogonalEdgeStyle;rounded=0;orthogonalLoop=1;jettySize=auto;html=1;" edge="1" parent="WIyWlLk6GJQsqaUBKTNV-1" source="LMy81X9K7p4voYokB2ZT-33" target="LMy81X9K7p4voYokB2ZT-35">
          <mxGeometry relative="1" as="geometry" />
        </mxCell>
        <mxCell id="LMy81X9K7p4voYokB2ZT-33" value="Выбрать количество бронируемых апартаментов" style="whiteSpace=wrap;html=1;rounded=0;" vertex="1" parent="WIyWlLk6GJQsqaUBKTNV-1">
          <mxGeometry x="518" y="1120" width="120" height="60" as="geometry" />
        </mxCell>
        <mxCell id="LMy81X9K7p4voYokB2ZT-38" value="" style="edgeStyle=orthogonalEdgeStyle;rounded=0;orthogonalLoop=1;jettySize=auto;html=1;" edge="1" parent="WIyWlLk6GJQsqaUBKTNV-1" source="LMy81X9K7p4voYokB2ZT-35" target="LMy81X9K7p4voYokB2ZT-37">
          <mxGeometry relative="1" as="geometry" />
        </mxCell>
        <mxCell id="LMy81X9K7p4voYokB2ZT-35" value="Открыть раздел &quot;Я бронирую&quot;" style="whiteSpace=wrap;html=1;rounded=0;" vertex="1" parent="WIyWlLk6GJQsqaUBKTNV-1">
          <mxGeometry x="518" y="1220" width="120" height="60" as="geometry" />
        </mxCell>
        <mxCell id="LMy81X9K7p4voYokB2ZT-40" value="" style="edgeStyle=orthogonalEdgeStyle;rounded=0;orthogonalLoop=1;jettySize=auto;html=1;" edge="1" parent="WIyWlLk6GJQsqaUBKTNV-1" source="LMy81X9K7p4voYokB2ZT-37" target="LMy81X9K7p4voYokB2ZT-39">
          <mxGeometry relative="1" as="geometry" />
        </mxCell>
        <mxCell id="LMy81X9K7p4voYokB2ZT-37" value="Ввести персональные данные" style="shape=parallelogram;perimeter=parallelogramPerimeter;whiteSpace=wrap;html=1;fixedSize=1;rounded=0;" vertex="1" parent="WIyWlLk6GJQsqaUBKTNV-1">
          <mxGeometry x="518" y="1320" width="120" height="60" as="geometry" />
        </mxCell>
        <mxCell id="LMy81X9K7p4voYokB2ZT-42" value="" style="edgeStyle=orthogonalEdgeStyle;rounded=0;orthogonalLoop=1;jettySize=auto;html=1;" edge="1" parent="WIyWlLk6GJQsqaUBKTNV-1" source="LMy81X9K7p4voYokB2ZT-39" target="LMy81X9K7p4voYokB2ZT-41">
          <mxGeometry relative="1" as="geometry" />
        </mxCell>
        <mxCell id="LMy81X9K7p4voYokB2ZT-39" value="Перейти к разделу &quot;Финальные данные&quot;" style="whiteSpace=wrap;html=1;rounded=0;" vertex="1" parent="WIyWlLk6GJQsqaUBKTNV-1">
          <mxGeometry x="518" y="1420" width="120" height="60" as="geometry" />
        </mxCell>
        <mxCell id="LMy81X9K7p4voYokB2ZT-44" value="" style="edgeStyle=orthogonalEdgeStyle;rounded=0;orthogonalLoop=1;jettySize=auto;html=1;exitX=0.5;exitY=1;exitDx=0;exitDy=0;" edge="1" parent="WIyWlLk6GJQsqaUBKTNV-1" source="LMy81X9K7p4voYokB2ZT-41">
          <mxGeometry relative="1" as="geometry">
            <mxPoint x="414" y="1620" as="targetPoint" />
            <Array as="points">
              <mxPoint x="578" y="1620" />
              <mxPoint x="414" y="1620" />
            </Array>
          </mxGeometry>
        </mxCell>
        <mxCell id="LMy81X9K7p4voYokB2ZT-41" value="Подтвердить оформление" style="whiteSpace=wrap;html=1;rounded=0;" vertex="1" parent="WIyWlLk6GJQsqaUBKTNV-1">
          <mxGeometry x="518" y="1520" width="120" height="60" as="geometry" />
        </mxCell>
        <mxCell id="LMy81X9K7p4voYokB2ZT-43" value="Конец" style="rounded=1;whiteSpace=wrap;html=1;fontSize=12;glass=0;strokeWidth=1;shadow=0;" vertex="1" parent="WIyWlLk6GJQsqaUBKTNV-1">
          <mxGeometry x="376" y="1650" width="76" height="30" as="geometry" />
        </mxCell>
        <mxCell id="LMy81X9K7p4voYokB2ZT-56" value="" style="edgeStyle=orthogonalEdgeStyle;rounded=0;orthogonalLoop=1;jettySize=auto;html=1;" edge="1" parent="WIyWlLk6GJQsqaUBKTNV-1" source="LMy81X9K7p4voYokB2ZT-51">
          <mxGeometry relative="1" as="geometry">
            <mxPoint x="410" y="490" as="targetPoint" />
            <Array as="points">
              <mxPoint x="140" y="930" />
              <mxPoint x="140" y="490" />
            </Array>
          </mxGeometry>
        </mxCell>
        <mxCell id="LMy81X9K7p4voYokB2ZT-58" value="" style="edgeStyle=orthogonalEdgeStyle;rounded=0;orthogonalLoop=1;jettySize=auto;html=1;entryX=0.5;entryY=0;entryDx=0;entryDy=0;" edge="1" parent="WIyWlLk6GJQsqaUBKTNV-1" source="LMy81X9K7p4voYokB2ZT-51" target="LMy81X9K7p4voYokB2ZT-43">
          <mxGeometry relative="1" as="geometry">
            <mxPoint x="462" y="930" as="targetPoint" />
          </mxGeometry>
        </mxCell>
        <mxCell id="LMy81X9K7p4voYokB2ZT-51" value="Продолжать поиски?" style="rhombus;whiteSpace=wrap;html=1;rounded=0;" vertex="1" parent="WIyWlLk6GJQsqaUBKTNV-1">
          <mxGeometry x="208" y="890" width="116" height="80" as="geometry" />
        </mxCell>
        <mxCell id="LMy81X9K7p4voYokB2ZT-64" value="Нет" style="text;html=1;strokeColor=none;fillColor=none;align=center;verticalAlign=middle;whiteSpace=wrap;rounded=0;" vertex="1" parent="WIyWlLk6GJQsqaUBKTNV-1">
          <mxGeometry x="502" y="300" width="40" height="20" as="geometry" />
        </mxCell>
        <mxCell id="LMy81X9K7p4voYokB2ZT-65" value="Да" style="text;html=1;strokeColor=none;fillColor=none;align=center;verticalAlign=middle;whiteSpace=wrap;rounded=0;" vertex="1" parent="WIyWlLk6GJQsqaUBKTNV-1">
          <mxGeometry x="306" y="520" width="40" height="20" as="geometry" />
        </mxCell>
        <mxCell id="LMy81X9K7p4voYokB2ZT-66" value="Нет" style="text;html=1;strokeColor=none;fillColor=none;align=center;verticalAlign=middle;whiteSpace=wrap;rounded=0;" vertex="1" parent="WIyWlLk6GJQsqaUBKTNV-1">
          <mxGeometry x="420" y="585" width="40" height="20" as="geometry" />
        </mxCell>
        <mxCell id="LMy81X9K7p4voYokB2ZT-67" value="Да" style="text;html=1;strokeColor=none;fillColor=none;align=center;verticalAlign=middle;whiteSpace=wrap;rounded=0;" vertex="1" parent="WIyWlLk6GJQsqaUBKTNV-1">
          <mxGeometry x="472" y="800" width="40" height="20" as="geometry" />
        </mxCell>
        <mxCell id="LMy81X9K7p4voYokB2ZT-68" value="Нет" style="text;html=1;strokeColor=none;fillColor=none;align=center;verticalAlign=middle;whiteSpace=wrap;rounded=0;" vertex="1" parent="WIyWlLk6GJQsqaUBKTNV-1">
          <mxGeometry x="316" y="800" width="40" height="20" as="geometry" />
        </mxCell>
        <mxCell id="LMy81X9K7p4voYokB2ZT-69" value="Да" style="text;html=1;strokeColor=none;fillColor=none;align=center;verticalAlign=middle;whiteSpace=wrap;rounded=0;" vertex="1" parent="WIyWlLk6GJQsqaUBKTNV-1">
          <mxGeometry x="168" y="900" width="40" height="20" as="geometry" />
        </mxCell>
        <mxCell id="LMy81X9K7p4voYokB2ZT-70" value="Нет" style="text;html=1;strokeColor=none;fillColor=none;align=center;verticalAlign=middle;whiteSpace=wrap;rounded=0;" vertex="1" parent="WIyWlLk6GJQsqaUBKTNV-1">
          <mxGeometry x="324" y="900" width="40" height="20" as="geometry" />
        </mxCell>
        <mxCell id="LMy81X9K7p4voYokB2ZT-71" value="Да" style="text;html=1;strokeColor=none;fillColor=none;align=center;verticalAlign=middle;whiteSpace=wrap;rounded=0;" vertex="1" parent="WIyWlLk6GJQsqaUBKTNV-1">
          <mxGeometry x="580" y="1080" width="40" height="20" as="geometry" />
        </mxCell>
        <mxCell id="LMy81X9K7p4voYokB2ZT-72" value="Нет" style="text;html=1;strokeColor=none;fillColor=none;align=center;verticalAlign=middle;whiteSpace=wrap;rounded=0;" vertex="1" parent="WIyWlLk6GJQsqaUBKTNV-1">
          <mxGeometry x="636" y="1010" width="40" height="20" as="geometry" />
        </mxCell>
      </root>
    </mxGraphModel>
  </diagram>
</mxfile>
